<mxfile host="app.diagrams.net" modified="2024-06-02T20:03:02.612Z" agent="Mozilla/5.0 (Windows NT 10.0; Win64; x64) AppleWebKit/537.36 (KHTML, like Gecko) Chrome/122.0.0.0 YaBrowser/24.4.0.0 Safari/537.36" etag="Ds7uHiWAeeFnlpvvEQfO" version="24.4.6" type="device">
  <diagram name="Страница — 1" id="Kmwac214Td1V1e4av5F5">
    <mxGraphModel dx="1509" dy="833" grid="1" gridSize="10" guides="1" tooltips="1" connect="1" arrows="1" fold="1" page="1" pageScale="1" pageWidth="2336" pageHeight="1654" math="0" shadow="0">
      <root>
        <mxCell id="0" />
        <mxCell id="1" parent="0" />
        <mxCell id="_hNuI7iZvCsiPNIKhO4N-20" value="" style="group" vertex="1" connectable="0" parent="1">
          <mxGeometry x="60" y="80" width="820" height="280" as="geometry" />
        </mxCell>
        <mxCell id="_hNuI7iZvCsiPNIKhO4N-18" value="" style="group" vertex="1" connectable="0" parent="_hNuI7iZvCsiPNIKhO4N-20">
          <mxGeometry width="820" height="280" as="geometry" />
        </mxCell>
        <mxCell id="_hNuI7iZvCsiPNIKhO4N-16" value="" style="rounded=1;whiteSpace=wrap;html=1;" vertex="1" parent="_hNuI7iZvCsiPNIKhO4N-18">
          <mxGeometry width="820" height="280" as="geometry" />
        </mxCell>
        <mxCell id="_hNuI7iZvCsiPNIKhO4N-17" value="PostgreSQL" style="text;html=1;align=center;verticalAlign=middle;whiteSpace=wrap;rounded=0;" vertex="1" parent="_hNuI7iZvCsiPNIKhO4N-18">
          <mxGeometry x="380" y="20" width="60" height="30" as="geometry" />
        </mxCell>
        <mxCell id="_hNuI7iZvCsiPNIKhO4N-19" value="" style="group" vertex="1" connectable="0" parent="_hNuI7iZvCsiPNIKhO4N-18">
          <mxGeometry x="125" y="70" width="570" height="150" as="geometry" />
        </mxCell>
        <mxCell id="_hNuI7iZvCsiPNIKhO4N-1" value="group" style="swimlane;fontStyle=0;childLayout=stackLayout;horizontal=1;startSize=30;horizontalStack=0;resizeParent=1;resizeParentMax=0;resizeLast=0;collapsible=1;marginBottom=0;whiteSpace=wrap;html=1;" vertex="1" parent="_hNuI7iZvCsiPNIKhO4N-19">
          <mxGeometry width="140" height="90" as="geometry" />
        </mxCell>
        <mxCell id="_hNuI7iZvCsiPNIKhO4N-2" value="id" style="text;strokeColor=none;fillColor=none;align=left;verticalAlign=middle;spacingLeft=4;spacingRight=4;overflow=hidden;points=[[0,0.5],[1,0.5]];portConstraint=eastwest;rotatable=0;whiteSpace=wrap;html=1;" vertex="1" parent="_hNuI7iZvCsiPNIKhO4N-1">
          <mxGeometry y="30" width="140" height="30" as="geometry" />
        </mxCell>
        <mxCell id="_hNuI7iZvCsiPNIKhO4N-3" value="name" style="text;strokeColor=none;fillColor=none;align=left;verticalAlign=middle;spacingLeft=4;spacingRight=4;overflow=hidden;points=[[0,0.5],[1,0.5]];portConstraint=eastwest;rotatable=0;whiteSpace=wrap;html=1;" vertex="1" parent="_hNuI7iZvCsiPNIKhO4N-1">
          <mxGeometry y="60" width="140" height="30" as="geometry" />
        </mxCell>
        <mxCell id="_hNuI7iZvCsiPNIKhO4N-5" value="category" style="swimlane;fontStyle=0;childLayout=stackLayout;horizontal=1;startSize=30;horizontalStack=0;resizeParent=1;resizeParentMax=0;resizeLast=0;collapsible=1;marginBottom=0;whiteSpace=wrap;html=1;" vertex="1" parent="_hNuI7iZvCsiPNIKhO4N-19">
          <mxGeometry x="200" width="140" height="120" as="geometry" />
        </mxCell>
        <mxCell id="_hNuI7iZvCsiPNIKhO4N-6" value="id" style="text;strokeColor=none;fillColor=none;align=left;verticalAlign=middle;spacingLeft=4;spacingRight=4;overflow=hidden;points=[[0,0.5],[1,0.5]];portConstraint=eastwest;rotatable=0;whiteSpace=wrap;html=1;" vertex="1" parent="_hNuI7iZvCsiPNIKhO4N-5">
          <mxGeometry y="30" width="140" height="30" as="geometry" />
        </mxCell>
        <mxCell id="_hNuI7iZvCsiPNIKhO4N-7" value="name&lt;span style=&quot;white-space: pre;&quot;&gt;&#x9;&lt;/span&gt;" style="text;strokeColor=none;fillColor=none;align=left;verticalAlign=middle;spacingLeft=4;spacingRight=4;overflow=hidden;points=[[0,0.5],[1,0.5]];portConstraint=eastwest;rotatable=0;whiteSpace=wrap;html=1;" vertex="1" parent="_hNuI7iZvCsiPNIKhO4N-5">
          <mxGeometry y="60" width="140" height="30" as="geometry" />
        </mxCell>
        <mxCell id="_hNuI7iZvCsiPNIKhO4N-8" value="id_group" style="text;strokeColor=none;fillColor=none;align=left;verticalAlign=middle;spacingLeft=4;spacingRight=4;overflow=hidden;points=[[0,0.5],[1,0.5]];portConstraint=eastwest;rotatable=0;whiteSpace=wrap;html=1;" vertex="1" parent="_hNuI7iZvCsiPNIKhO4N-5">
          <mxGeometry y="90" width="140" height="30" as="geometry" />
        </mxCell>
        <mxCell id="_hNuI7iZvCsiPNIKhO4N-9" value="subcategory" style="swimlane;fontStyle=0;childLayout=stackLayout;horizontal=1;startSize=30;horizontalStack=0;resizeParent=1;resizeParentMax=0;resizeLast=0;collapsible=1;marginBottom=0;whiteSpace=wrap;html=1;" vertex="1" parent="_hNuI7iZvCsiPNIKhO4N-19">
          <mxGeometry x="430" width="140" height="150" as="geometry" />
        </mxCell>
        <mxCell id="_hNuI7iZvCsiPNIKhO4N-10" value="id" style="text;strokeColor=none;fillColor=none;align=left;verticalAlign=middle;spacingLeft=4;spacingRight=4;overflow=hidden;points=[[0,0.5],[1,0.5]];portConstraint=eastwest;rotatable=0;whiteSpace=wrap;html=1;" vertex="1" parent="_hNuI7iZvCsiPNIKhO4N-9">
          <mxGeometry y="30" width="140" height="30" as="geometry" />
        </mxCell>
        <mxCell id="_hNuI7iZvCsiPNIKhO4N-11" value="name" style="text;strokeColor=none;fillColor=none;align=left;verticalAlign=middle;spacingLeft=4;spacingRight=4;overflow=hidden;points=[[0,0.5],[1,0.5]];portConstraint=eastwest;rotatable=0;whiteSpace=wrap;html=1;" vertex="1" parent="_hNuI7iZvCsiPNIKhO4N-9">
          <mxGeometry y="60" width="140" height="30" as="geometry" />
        </mxCell>
        <mxCell id="_hNuI7iZvCsiPNIKhO4N-12" value="id_category" style="text;strokeColor=none;fillColor=none;align=left;verticalAlign=middle;spacingLeft=4;spacingRight=4;overflow=hidden;points=[[0,0.5],[1,0.5]];portConstraint=eastwest;rotatable=0;whiteSpace=wrap;html=1;" vertex="1" parent="_hNuI7iZvCsiPNIKhO4N-9">
          <mxGeometry y="90" width="140" height="30" as="geometry" />
        </mxCell>
        <mxCell id="_hNuI7iZvCsiPNIKhO4N-15" value="uuid_fields" style="text;strokeColor=none;fillColor=none;align=left;verticalAlign=middle;spacingLeft=4;spacingRight=4;overflow=hidden;points=[[0,0.5],[1,0.5]];portConstraint=eastwest;rotatable=0;whiteSpace=wrap;html=1;" vertex="1" parent="_hNuI7iZvCsiPNIKhO4N-9">
          <mxGeometry y="120" width="140" height="30" as="geometry" />
        </mxCell>
        <mxCell id="_hNuI7iZvCsiPNIKhO4N-13" style="edgeStyle=orthogonalEdgeStyle;rounded=0;orthogonalLoop=1;jettySize=auto;html=1;entryX=0;entryY=0.5;entryDx=0;entryDy=0;" edge="1" parent="_hNuI7iZvCsiPNIKhO4N-19" source="_hNuI7iZvCsiPNIKhO4N-2" target="_hNuI7iZvCsiPNIKhO4N-8">
          <mxGeometry relative="1" as="geometry" />
        </mxCell>
        <mxCell id="_hNuI7iZvCsiPNIKhO4N-14" style="edgeStyle=orthogonalEdgeStyle;rounded=0;orthogonalLoop=1;jettySize=auto;html=1;exitX=1;exitY=0.5;exitDx=0;exitDy=0;entryX=0;entryY=0.5;entryDx=0;entryDy=0;" edge="1" parent="_hNuI7iZvCsiPNIKhO4N-19" source="_hNuI7iZvCsiPNIKhO4N-6" target="_hNuI7iZvCsiPNIKhO4N-12">
          <mxGeometry relative="1" as="geometry" />
        </mxCell>
        <mxCell id="_hNuI7iZvCsiPNIKhO4N-26" value="" style="group" vertex="1" connectable="0" parent="1">
          <mxGeometry x="970" y="98.75" width="290" height="242.5" as="geometry" />
        </mxCell>
        <mxCell id="_hNuI7iZvCsiPNIKhO4N-21" value="" style="rounded=1;whiteSpace=wrap;html=1;" vertex="1" parent="_hNuI7iZvCsiPNIKhO4N-26">
          <mxGeometry width="290" height="242.5" as="geometry" />
        </mxCell>
        <mxCell id="_hNuI7iZvCsiPNIKhO4N-22" value="additional fields" style="swimlane;fontStyle=0;childLayout=stackLayout;horizontal=1;startSize=30;horizontalStack=0;resizeParent=1;resizeParentMax=0;resizeLast=0;collapsible=1;marginBottom=0;whiteSpace=wrap;html=1;" vertex="1" parent="_hNuI7iZvCsiPNIKhO4N-26">
          <mxGeometry x="75" y="57.5" width="140" height="120" as="geometry" />
        </mxCell>
        <mxCell id="_hNuI7iZvCsiPNIKhO4N-23" value="_id" style="text;strokeColor=none;fillColor=none;align=left;verticalAlign=middle;spacingLeft=4;spacingRight=4;overflow=hidden;points=[[0,0.5],[1,0.5]];portConstraint=eastwest;rotatable=0;whiteSpace=wrap;html=1;" vertex="1" parent="_hNuI7iZvCsiPNIKhO4N-22">
          <mxGeometry y="30" width="140" height="30" as="geometry" />
        </mxCell>
        <mxCell id="_hNuI7iZvCsiPNIKhO4N-24" value="field1" style="text;strokeColor=none;fillColor=none;align=left;verticalAlign=middle;spacingLeft=4;spacingRight=4;overflow=hidden;points=[[0,0.5],[1,0.5]];portConstraint=eastwest;rotatable=0;whiteSpace=wrap;html=1;" vertex="1" parent="_hNuI7iZvCsiPNIKhO4N-22">
          <mxGeometry y="60" width="140" height="30" as="geometry" />
        </mxCell>
        <mxCell id="_hNuI7iZvCsiPNIKhO4N-25" value="field_n" style="text;strokeColor=none;fillColor=none;align=left;verticalAlign=middle;spacingLeft=4;spacingRight=4;overflow=hidden;points=[[0,0.5],[1,0.5]];portConstraint=eastwest;rotatable=0;whiteSpace=wrap;html=1;" vertex="1" parent="_hNuI7iZvCsiPNIKhO4N-22">
          <mxGeometry y="90" width="140" height="30" as="geometry" />
        </mxCell>
        <mxCell id="_hNuI7iZvCsiPNIKhO4N-28" value="MongoDB" style="text;html=1;align=center;verticalAlign=middle;whiteSpace=wrap;rounded=0;" vertex="1" parent="_hNuI7iZvCsiPNIKhO4N-26">
          <mxGeometry x="115" y="20" width="60" height="30" as="geometry" />
        </mxCell>
        <mxCell id="_hNuI7iZvCsiPNIKhO4N-27" style="edgeStyle=orthogonalEdgeStyle;rounded=0;orthogonalLoop=1;jettySize=auto;html=1;entryX=0;entryY=0.5;entryDx=0;entryDy=0;" edge="1" parent="1" source="_hNuI7iZvCsiPNIKhO4N-15" target="_hNuI7iZvCsiPNIKhO4N-23">
          <mxGeometry relative="1" as="geometry" />
        </mxCell>
      </root>
    </mxGraphModel>
  </diagram>
</mxfile>
